<svg width="257" height="83" viewBox="0 0 257 83" fill="none" xmlns="http://www.w3.org/2000/svg">
<path fill-rule="evenodd" clip-rule="evenodd" d="M130.014 26.9867H130.638L133.817 38.2348L145.741 37.7091L145.921 38.311L135.975 44.7121L140.144 55.5416L139.661 55.9812L130.326 48.7153L120.951 56.0133L120.489 55.5931L124.678 44.7121L114.714 38.2995L114.891 37.7082L126.836 38.2348L130.014 26.9867Z" fill="white"/>
<path fill-rule="evenodd" clip-rule="evenodd" d="M38.6483 67.3529H28.4796V45.951H18.1606V67.3264H13.2243L7.78784 56.2156V24.1803C7.79457 19.5553 12.1952 15.7171 17.6629 15.615C21.3955 15.545 25.1348 15.545 28.8674 15.615C34.2567 15.7171 38.7066 19.5666 38.7134 24.1103C38.7271 34.8842 38.7237 45.657 38.7204 56.4304C38.7193 60.0558 38.917 63.7344 38.6506 67.351L38.6483 67.3529ZM18.1741 24.3581V37.0888H28.3294V24.3581H18.1741ZM95.364 37.1715H109.216V45.8428H95.3595V58.7134H109.221L111.58 67.3676C106.269 67.598 100.933 67.3476 95.6173 67.4357C89.5398 67.536 84.8791 63.4576 84.9285 58.3616C85.0039 50.4554 84.989 42.5493 84.9741 34.6431C84.9678 31.2684 84.9614 27.8913 84.9621 24.5165C84.9621 19.3675 89.3448 15.6316 95.4514 15.5994C100.024 15.5748 104.64 15.412 109.209 15.6505V24.2706H95.364V37.1715ZM46.4504 15.6395C53.1409 15.3769 59.8704 15.5841 66.5638 15.5922C71.9217 15.5998 76.0241 18.1459 77.3289 22.5269C77.8004 24.1103 77.3289 34.3345 77.3289 34.3345C77.3737 36.8692 76.607 39.1184 74.4952 40.9816C74.345 41.114 74.2464 41.2843 74.0984 41.4678C74.2016 41.6115 74.2711 41.7629 74.3921 41.8688C76.6294 43.8304 77.4051 46.195 77.3289 48.8735C77.237 52.119 77.3334 55.368 77.3289 58.6154C77.3199 63.5279 72.9103 67.3585 67.1108 67.4058C60.2881 67.4607 53.2603 67.9141 46.4504 67.3396V15.6395ZM56.7492 37.0792H66.9068V24.3694H56.7492V37.0792ZM56.7985 45.9207V58.6229H66.8821V45.9207H56.7985Z" fill="white"/>
<path fill-rule="evenodd" clip-rule="evenodd" d="M215.995 67.4267L200.007 67.4229C193.759 67.4002 189.401 63.6924 189.401 58.4137V24.5494C189.401 19.3293 193.768 15.6026 199.94 15.5723L213.659 15.6272V24.2485H199.825V37.1264H213.655V45.8347H199.818V58.6805H213.635L215.995 67.4267ZM178.551 41.4485C178.621 41.5772 178.641 41.6813 178.713 41.7437C181.203 43.873 181.878 46.4812 181.766 49.3827C181.647 52.4716 181.746 55.5643 181.739 58.6551C181.728 63.5496 177.311 67.371 171.499 67.4126L150.908 67.3577V15.6301L171.043 15.5714C177.363 15.5828 181.741 19.2925 181.744 24.6148C181.744 27.8946 181.71 31.177 181.755 34.4568C181.788 36.9249 181.015 39.1129 178.975 40.9337C178.802 41.087 178.688 41.2857 178.556 41.4523L178.551 41.4485ZM171.351 37.0763V24.3384H161.193V37.0763H171.351ZM161.22 45.9039V58.6324H171.324V45.9039H161.22ZM218.937 15.6272H246.643L249.652 23.3162V24.1992H239.479V67.2999H229.169V24.2144H218.937V15.6272Z" fill="#F2FF44"/>
</svg>
